<?xml version="1.0" encoding="UTF-8"?> <svg xmlns="http://www.w3.org/2000/svg" viewBox="0 0 558.55 56.15"><defs><style>.cls-1{fill:#fff;}.cls-2{fill:#df1920;fill-rule:evenodd;}</style></defs><title>Fichier 5</title><g id="Calque_2" data-name="Calque 2"><g id="Layer_1" data-name="Layer 1"><rect class="cls-1" x="476.12" y="7.48" width="67.33" height="39.88"></rect><path class="cls-2" d="M479.5.1h66.3a29,29,0,0,1,4.38,0c.07,0,.26,0,.32,0s0,.22.06.25a10,10,0,0,0,1.68.26,7.92,7.92,0,0,1,1.74.78,8.09,8.09,0,0,1,4.31,5.53,10.35,10.35,0,0,1,0,4.57c-.34,1.41-.53,2.86-.77,4.12-1.07,5.39-1.92,11.16-3.09,16.54-.3,1.37-.39,2.86-.71,4.25-.92,4-1.15,8.55-2.9,11.78A15.51,15.51,0,0,1,543,55.06,13.49,13.49,0,0,1,539,56c-3.18.27-6.57,0-9.84,0H470.3a14.14,14.14,0,0,1-4.37-.51,7.91,7.91,0,0,1-5.35-5.28,11.42,11.42,0,0,1-.13-5.47c.51-2.35.89-4.79,1.36-7.15.24-1.22.33-2.47.57-3.67,1.25-6.05,2.22-11.81,3.29-17.89.21-1.21.5-2.39.71-3.54a14.69,14.69,0,0,1,6.95-10,14.15,14.15,0,0,1,4.5-1.87C478.37.51,479.46.52,479.5.1Zm6.57,14.22a11.8,11.8,0,0,0-2.38,0c-.78.2-.54.7-.77,1.81-.07.32-.26.62-.32,1s0,.68-.07,1-.27.53-.32.77,0,.73-.07,1.09-.29.93-.38,1.42c-.2,1.05-.39,2.12-.65,3.09-.15.57-.14,1.09-.25,1.61-.07.3-.26.54-.32.83-.65,3-1.21,5.88-1.81,8.82-.33,1.64-.81,3.43-1.09,5-.16.84-.37,1.76-.45,2.31,12,.3,24.5,0,36.62.13a15.94,15.94,0,0,0,1.42-2.31c.25-.43,1-2.09,1.48-2.26a13.84,13.84,0,0,1,3,0c3.12,0,6.22-.05,9.08.07.07,1.38.48,2.89.64,4.37,3.18.26,7.08.14,10.36.07a38,38,0,0,0-1.15-5.86c-.1-.43-.1-.88-.2-1.28s-.26-.6-.32-.91c-1.2-6.47-2.85-13.11-4.12-19.11-.12-.58-.08-1.14-.32-1.35s-1.89-.2-2.77-.2c-3.06,0-6.14-.05-8.88.07-1.64,2-2.86,4.39-4.38,6.5-2.78,4.46-5.73,8.77-8.49,13.26-1.26,1.81-2.59,3.92-3.74,5.79-.12.2-.33.66-.64.64.21-1.45.86-2.78.77-4.31-5.25-.24-11.7.15-17-.19-.22-.68.19-1.24.32-1.87.51-2.37.91-4.63,1.35-6.89.2-1,.59-2,.78-3,.05-.28,0-.62.06-.9.59-3,1.47-6,1.87-8.94A44.46,44.46,0,0,0,486.07,14.32Z"></path><path class="cls-2" d="M526.24,22.37c.15,1.36.34,2.69.51,4.05.25,2,.92,3.9.77,5.8-2.23.1-4.91.1-7.14,0,1.14-2.26,2.74-4.9,4.12-7.28a19,19,0,0,1,1.41-2.38c.05,0,.09-.18.2-.19Z"></path><path class="cls-1" d="M0,42.91V13H5.64V38.66h9v4.25Z"></path><path class="cls-1" d="M18,13H32.62v4.25h-9v4.59h7.73v4.27H23.64V38.66h9v4.25H18Z"></path><path class="cls-1" d="M57.08,21.79v-3c0-1.35-.82-2-2.47-2s-2.45.68-2.45,2V37.12c0,1.35.81,2,2.43,2h0c1.64,0,2.45-.69,2.45-2v-4h5.64v4q0,6.29-8.11,6.28t-8.08-6.28V18.83q0-6.3,8.08-6.3t8.11,6.3v3Z"></path><path class="cls-1" d="M67.3,13h8.21Q83,13,83,19.3v.49q0,3.95-4.45,5.2l6.34,17.92H78.73L73.66,25.75l-.72.08V42.91H67.3Zm5.64,4.25v4.56h1.29a7.23,7.23,0,0,0,1.62-.12,1.9,1.9,0,0,0,1.53-1.91V19.3c0-1.36-.82-2-2.45-2Z"></path><path class="cls-1" d="M88.1,13h14.62v4.25h-9V29.8h7.73v4.27H93.73v4.59h9v4.25H88.1Zm7.15-1.16H92.12L95,8h4.42Z"></path><path class="cls-1" d="M106.9,13h8.68q7.52,0,7.51,6.29V36.63q0,6.27-7.87,6.28H106.9Zm5.63,4.25v21.4H115c1.64,0,2.45-.67,2.45-2V19.3c0-1.36-.81-2-2.45-2Z"></path><path class="cls-1" d="M128,13h5.64v29.9H128Z"></path><path class="cls-1" d="M153.48,13v4.25h-5.27V42.91h-5.64V17.26h-5.28V13Z"></path><path class="cls-1" d="M179.46,33.49,186,13h5.64v29.9h-5.4V26.13l-4.82,16.78h-3.82l-5-16.78V42.91h-5.46V13h5.64Z"></path><path class="cls-1" d="M212.82,37.11q0,6.27-8.11,6.29t-8.08-6.29V13h5.63v24.1c0,1.35.82,2,2.45,2s2.47-.67,2.47-2V13h5.64Z"></path><path class="cls-1" d="M232.4,13v4.25h-5.28V42.91h-5.64V17.26H216.2V13Z"></path><path class="cls-1" d="M252,37.11q0,6.27-8.11,6.29t-8.09-6.29V13h5.64v24.1c0,1.35.82,2,2.45,2s2.47-.67,2.47-2V13H252Z"></path><path class="cls-1" d="M257,13h14.62v4.25h-9v4.59h7.73v4.27h-7.73V38.66h9v4.25H257Z"></path><path class="cls-1" d="M275.76,42.91V13h5.63V38.66h9v4.25Z"></path><path class="cls-1" d="M303.88,13h8.69q7.5,0,7.5,6.29V36.63q0,6.27-7.86,6.28h-8.33Zm5.64,4.25v21.4H312c1.63,0,2.45-.67,2.45-2V19.3c0-1.36-.82-2-2.45-2Z"></path><path class="cls-1" d="M340.65,37.11q0,6.27-8.11,6.29t-8.08-6.29V18.81q0-6.27,8.08-6.28t8.11,6.28ZM335,18.81c0-1.34-.81-2-2.45-2h0c-1.62,0-2.43.67-2.43,2v18.3c0,1.35.82,2,2.45,2s2.47-.67,2.47-2Z"></path><path class="cls-1" d="M345.43,13h5.64l5.33,17.34V13h5.22v29.9H356l-5.14-16.79V42.91h-5.42Z"></path><path class="cls-1" d="M366.8,13h5.64l5.34,17.34V13H383v29.9h-5.64l-5.14-16.79V42.91H366.8Z"></path><path class="cls-1" d="M388.17,13h14.62v4.25h-9v4.59h7.73v4.27h-7.73V38.66h9v4.25H388.17Z"></path><path class="cls-1" d="M417.09,42.91V13h5.64V38.66h9v4.25Z"></path><path class="cls-1" d="M435.1,13h14.62v4.25h-9v4.59h7.73v4.27h-7.73V38.66h9v4.25H435.1Z"></path></g></g></svg> 